<mxfile host="app.diagrams.net" modified="2024-05-27T07:43:04.965Z" agent="Mozilla/5.0 (Windows NT 10.0; Win64; x64) AppleWebKit/537.36 (KHTML, like Gecko) Chrome/125.0.0.0 Safari/537.36" version="24.4.8" etag="U9L1Snfrfke_wb0Xevx7" type="github">
  <diagram name="Page-1" id="FKd-eIdDfisqOKp8B6V9">
    <mxGraphModel>
      <root>
        <mxCell id="0" />
        <mxCell id="1" parent="0" />
      </root>
    </mxGraphModel>
  </diagram>
</mxfile>
